<mxfile host="65bd71144e">
    <diagram id="ypeufuI1j4cWYE-J5mNb" name="Page-1">
        <mxGraphModel dx="517" dy="773" grid="1" gridSize="10" guides="1" tooltips="1" connect="1" arrows="1" fold="1" page="1" pageScale="1" pageWidth="827" pageHeight="1169" math="0" shadow="0">
            <root>
                <mxCell id="0"/>
                <mxCell id="1" parent="0"/>
                <mxCell id="2" value="参加者" style="shape=umlActor;verticalLabelPosition=bottom;verticalAlign=top;html=1;" vertex="1" parent="1">
                    <mxGeometry x="200" y="155" width="30" height="60" as="geometry"/>
                </mxCell>
                <mxCell id="7" value="" style="endArrow=none;endFill=0;endSize=24;html=1;" edge="1" parent="1" source="2" target="15">
                    <mxGeometry width="160" relative="1" as="geometry">
                        <mxPoint x="450" y="250" as="sourcePoint"/>
                        <mxPoint x="360" y="185" as="targetPoint"/>
                    </mxGeometry>
                </mxCell>
                <mxCell id="9" value="「扇風機つけて」などの入力&lt;br&gt;（入力はキーボード）" style="shape=note;whiteSpace=wrap;html=1;backgroundOutline=1;darkOpacity=0.05;fillColor=#ffe6cc;strokeColor=#d79b00;align=left;" vertex="1" parent="1">
                    <mxGeometry x="80" y="40" width="160" height="50" as="geometry"/>
                </mxCell>
                <mxCell id="10" value="" style="endArrow=none;dashed=1;html=1;" edge="1" parent="1" source="2" target="9">
                    <mxGeometry width="50" height="50" relative="1" as="geometry">
                        <mxPoint x="390" y="270" as="sourcePoint"/>
                        <mxPoint x="440" y="220" as="targetPoint"/>
                    </mxGeometry>
                </mxCell>
                <mxCell id="11" value="" style="endArrow=none;endFill=0;endSize=24;html=1;" edge="1" parent="1" source="15" target="16">
                    <mxGeometry width="160" relative="1" as="geometry">
                        <mxPoint x="440" y="160" as="sourcePoint"/>
                        <mxPoint x="550" y="50" as="targetPoint"/>
                    </mxGeometry>
                </mxCell>
                <mxCell id="12" value="ロングポーリング" style="endArrow=none;endFill=0;endSize=24;html=1;" edge="1" parent="1" source="17" target="16">
                    <mxGeometry width="160" relative="1" as="geometry">
                        <mxPoint x="710" y="160" as="sourcePoint"/>
                        <mxPoint x="600" y="50" as="targetPoint"/>
                    </mxGeometry>
                </mxCell>
                <mxCell id="13" value="OpenAI API" style="html=1;" vertex="1" parent="1">
                    <mxGeometry x="365" y="40" width="110" height="50" as="geometry"/>
                </mxCell>
                <mxCell id="14" value="Zapier NLA" style="html=1;" vertex="1" parent="1">
                    <mxGeometry x="560" y="160" width="110" height="50" as="geometry"/>
                </mxCell>
                <mxCell id="15" value="AIアシスタント&lt;br&gt;Webアプリ" style="ellipse;whiteSpace=wrap;html=1;" vertex="1" parent="1">
                    <mxGeometry x="360" y="145" width="120" height="80" as="geometry"/>
                </mxCell>
                <mxCell id="16" value="&lt;span style=&quot;&quot;&gt;クラウドサーバ&lt;/span&gt;" style="ellipse;whiteSpace=wrap;html=1;" vertex="1" parent="1">
                    <mxGeometry x="560" y="240" width="120" height="80" as="geometry"/>
                </mxCell>
                <mxCell id="17" value="&lt;span style=&quot;&quot;&gt;電気・扇風機操作機&lt;/span&gt;&lt;br style=&quot;border-color: var(--border-color);&quot;&gt;&lt;span style=&quot;&quot;&gt;（ラズパイ）&lt;/span&gt;" style="ellipse;whiteSpace=wrap;html=1;" vertex="1" parent="1">
                    <mxGeometry x="800" y="240" width="120" height="80" as="geometry"/>
                </mxCell>
                <mxCell id="18" value="" style="endArrow=none;endFill=0;endSize=24;html=1;" edge="1" parent="1" source="13" target="15">
                    <mxGeometry width="160" relative="1" as="geometry">
                        <mxPoint x="240" y="195" as="sourcePoint"/>
                        <mxPoint x="370" y="195" as="targetPoint"/>
                    </mxGeometry>
                </mxCell>
                <mxCell id="19" value="" style="endArrow=none;endFill=0;endSize=24;html=1;" edge="1" parent="1" source="14" target="15">
                    <mxGeometry width="160" relative="1" as="geometry">
                        <mxPoint x="374.0277777777778" y="350" as="sourcePoint"/>
                        <mxPoint x="415.9567696854899" y="233.88894548633516" as="targetPoint"/>
                    </mxGeometry>
                </mxCell>
                <mxCell id="20" value="Google&lt;br&gt;カレンダー&lt;br&gt;など" style="html=1;" vertex="1" parent="1">
                    <mxGeometry x="720" y="160" width="110" height="50" as="geometry"/>
                </mxCell>
                <mxCell id="21" value="" style="endArrow=none;endFill=0;endSize=24;html=1;" edge="1" parent="1" source="20" target="14">
                    <mxGeometry width="160" relative="1" as="geometry">
                        <mxPoint x="526.1875" y="330" as="sourcePoint"/>
                        <mxPoint x="455.7434088741022" y="231.13110017417853" as="targetPoint"/>
                    </mxGeometry>
                </mxCell>
                <mxCell id="23" value="検索エンジン" style="html=1;" vertex="1" parent="1">
                    <mxGeometry x="560" y="80" width="110" height="50" as="geometry"/>
                </mxCell>
                <mxCell id="24" value="" style="endArrow=none;endFill=0;endSize=24;html=1;" edge="1" parent="1" source="23" target="15">
                    <mxGeometry width="160" relative="1" as="geometry">
                        <mxPoint x="552.7083333333333" y="100" as="sourcePoint"/>
                        <mxPoint x="469.1513881215935" y="164.68924790586289" as="targetPoint"/>
                    </mxGeometry>
                </mxCell>
                <mxCell id="26" value="WiFiの設定方法は要検討&lt;br&gt;（テザリング？）" style="shape=note;whiteSpace=wrap;html=1;backgroundOutline=1;darkOpacity=0.05;fillColor=#ffe6cc;strokeColor=#d79b00;align=left;" vertex="1" parent="1">
                    <mxGeometry x="680" y="360" width="160" height="50" as="geometry"/>
                </mxCell>
                <mxCell id="27" value="" style="endArrow=none;dashed=1;html=1;" edge="1" parent="1" target="26" source="17">
                    <mxGeometry width="50" height="50" relative="1" as="geometry">
                        <mxPoint x="731.25" y="465" as="sourcePoint"/>
                        <mxPoint x="970" y="530" as="targetPoint"/>
                    </mxGeometry>
                </mxCell>
            </root>
        </mxGraphModel>
    </diagram>
</mxfile>